<svg xmlns="http://www.w3.org/2000/svg" viewBox="0 0 83 57.69"><defs><style>.cls-1{fill:#466e82;}</style></defs><g id="Layer_2" data-name="Layer 2"><g id="Layer_1-2" data-name="Layer 1"><path class="cls-1" d="M13.8.15h1.6l3.4,8H17l-.73-1.78H12.9l-.72,1.78H10.4Zm1.83,4.66L14.58,2.24,13.52,4.81Z"/><polygon class="cls-1" points="39.37 0.14 40.99 0.14 44.73 5.05 44.73 0.14 46.47 0.14 46.47 8.12 44.97 8.12 41.11 3.05 41.11 8.12 39.37 8.12 39.37 0.14"/><polygon class="cls-1" points="72.9 0.14 74.52 0.14 78.27 5.05 78.27 0.14 80 0.14 80 8.12 78.5 8.12 74.64 3.05 74.64 8.12 72.9 8.12 72.9 0.14"/><polygon class="cls-1" points="9.18 0.15 8.02 5.33 6.47 0.15 4.71 0.15 3.14 5.41 2.01 0.15 0 0.15 1.91 8.12 3.86 8.12 5.47 3.19 7.07 8.12 9.02 8.12 11.02 0.15 9.18 0.15"/><path class="cls-1" d="M24.43,2.41a2.3,2.3,0,0,0-1.87-.84c-1,0-1.35.56-1.35.84s.24.57.7.7,1.47.41,2.12.6c1.7.55,1.81,1.49,1.81,2.16,0,1.33-1.36,2.41-3.17,2.41A3.72,3.72,0,0,1,19.4,6.69l1.38-1A2.39,2.39,0,0,0,22.6,6.76c.93,0,1.43-.39,1.43-.87s-.3-.57-1-.77S21.61,4.73,21,4.49A2,2,0,0,1,19.5,2.54C19.5.91,21.14,0,22.67,0a3.81,3.81,0,0,1,3,1.41Z"/><polygon class="cls-1" points="32.19 8.12 32.19 4.84 29.05 4.84 29.05 8.12 27.18 8.12 27.18 0.15 29.05 0.15 29.05 3.39 32.19 3.39 32.19 0.15 34.06 0.15 34.06 8.12 32.19 8.12"/><rect class="cls-1" x="35.8" y="0.15" width="1.94" height="7.97"/><path class="cls-1" d="M51.6,3.41h4.29v.73a3.86,3.86,0,0,1-4,4.12,4,4,0,0,1-4.22-4.12A4.14,4.14,0,0,1,51.93,0a3.94,3.94,0,0,1,3.32,1.62l-1.35.94a2.44,2.44,0,0,0-2-1A2.35,2.35,0,0,0,49.6,4.14a2.38,2.38,0,0,0,2.28,2.57A2,2,0,0,0,54,4.81H51.6Z"/><polygon class="cls-1" points="60.67 1.7 60.67 8.12 58.75 8.12 58.75 1.7 56.42 1.7 56.42 0.15 63 0.15 63 1.7 60.67 1.7"/><path class="cls-1" d="M67.67,1.6a2.3,2.3,0,0,0-2.28,2.54,2.29,2.29,0,1,0,4.55,0A2.31,2.31,0,0,0,67.67,1.6m0,6.67a4.07,4.07,0,0,1-4.2-4.13,4.19,4.19,0,0,1,8.38,0,4.05,4.05,0,0,1-4.18,4.13"/><path class="cls-1" d="M43.63,36.19,45,40.36l-3.59-2.55-3.53,2.64,1.31-4.21L35.64,33.7l4.4-.05,1.31-4.21,1.41,4.17,4.4,0ZM29.71,34.55c0,7.2-4.91,11.28-12.31,11.28h-5V23.14h5c7.4,0,12.31,4.14,12.31,11.28Zm44,6.44c-2.68,3.25-5.42,5.42-10.07,5.42C57.37,46.41,53,41.18,53,34.49v-.13c0-6.5,4.4-11.79,10.65-11.79,4.27,0,7.2,2,9.75,5.22l9.31-7.2c-4-5.48-9.82-9.31-18.93-9.31-10.84,0-19.42,6.57-22.4,15.87-2.82-9-11.31-15-24.14-15H0V56.8H17c12.81,0,21.37-6.08,24.3-15.08a22.62,22.62,0,0,0,22,16c9.88,0,15.55-4.27,19.76-10.07Z"/><polygon class="cls-1" points="78.92 55.77 78.18 55.77 78.18 55.28 80.18 55.28 80.18 55.77 79.45 55.77 79.45 57.69 78.92 57.69 78.92 55.77"/><polygon class="cls-1" points="80.59 55.28 81.16 55.28 81.79 56.3 82.43 55.28 83 55.28 83 57.69 82.47 57.69 82.47 56.12 81.79 57.15 81.78 57.15 81.11 56.13 81.11 57.69 80.59 57.69 80.59 55.28"/></g></g></svg>